<?xml version="1.0" encoding="UTF-8" standalone="no"?>
<!-- Created with Inkscape (http://www.inkscape.org/) -->
<svg
   xmlns:dc="http://purl.org/dc/elements/1.1/"
   xmlns:cc="http://creativecommons.org/ns#"
   xmlns:rdf="http://www.w3.org/1999/02/22-rdf-syntax-ns#"
   xmlns:svg="http://www.w3.org/2000/svg"
   xmlns="http://www.w3.org/2000/svg"
   xmlns:sodipodi="http://sodipodi.sourceforge.net/DTD/sodipodi-0.dtd"
   xmlns:inkscape="http://www.inkscape.org/namespaces/inkscape"
   id="svg2443"
   sodipodi:version="0.32"
   inkscape:version="0.46"
   width="1239.4044"
   height="685.52356"
   version="1.0"
   sodipodi:docname="hs_bremerhaven_logo.svg"
   inkscape:output_extension="org.inkscape.output.svg.inkscape">
  <metadata
     id="metadata2448">
    <rdf:RDF>
      <cc:Work
         rdf:about="">
        <dc:format>image/svg+xml</dc:format>
        <dc:type
           rdf:resource="http://purl.org/dc/dcmitype/StillImage" />
        <cc:license
           rdf:resource="http://creativecommons.org/licenses/by-sa/3.0/" />
        <dc:date>14. September 2008</dc:date>
        <dc:creator>
          <cc:Agent>
            <dc:title>Jacqueline Schmidt (jacschmidt &lt;at&gt; stud.hs-bremen.de)</dc:title>
          </cc:Agent>
        </dc:creator>
        <dc:title>Logo der Hochschule Bremerhaven</dc:title>
        <dc:contributor>
          <cc:Agent>
            <dc:title>André Klitzing</dc:title>
          </cc:Agent>
        </dc:contributor>
        <dc:description>http://www.hs-bremerhaven.de</dc:description>
        <dc:rights>
          <cc:Agent>
            <dc:title>Logo: FH Bremerhaven; diese Datei: Jacqueline Schmidt</dc:title>
          </cc:Agent>
        </dc:rights>
      </cc:Work>
      <cc:License
         rdf:about="http://creativecommons.org/licenses/by-sa/3.0/">
        <cc:permits
           rdf:resource="http://creativecommons.org/ns#Reproduction" />
        <cc:permits
           rdf:resource="http://creativecommons.org/ns#Distribution" />
        <cc:requires
           rdf:resource="http://creativecommons.org/ns#Notice" />
        <cc:requires
           rdf:resource="http://creativecommons.org/ns#Attribution" />
        <cc:permits
           rdf:resource="http://creativecommons.org/ns#DerivativeWorks" />
        <cc:requires
           rdf:resource="http://creativecommons.org/ns#ShareAlike" />
      </cc:License>
    </rdf:RDF>
  </metadata>
  <defs
     id="defs2446">
    <inkscape:perspective
       sodipodi:type="inkscape:persp3d"
       inkscape:vp_x="0 : 526.18109 : 1"
       inkscape:vp_y="0 : 1000 : 0"
       inkscape:vp_z="744.09448 : 526.18109 : 1"
       inkscape:persp3d-origin="372.04724 : 350.78739 : 1"
       id="perspective2450" />
  </defs>
  <sodipodi:namedview
     inkscape:window-height="850"
     inkscape:window-width="1396"
     inkscape:pageshadow="2"
     inkscape:pageopacity="0.0"
     guidetolerance="10.0"
     gridtolerance="10.0"
     objecttolerance="10.0"
     borderopacity="1.0"
     bordercolor="#666666"
     pagecolor="#ffffff"
     id="base"
     showgrid="false"
     inkscape:zoom="0.5"
     inkscape:cx="691.66133"
     inkscape:cy="335.26066"
     inkscape:window-x="0"
     inkscape:window-y="48"
     inkscape:current-layer="svg2443" />
  <path
     sodipodi:type="arc"
     style="opacity:1;fill:none;fill-opacity:1;fill-rule:nonzero;stroke:#a5c1ca;stroke-opacity:1"
     id="path3360"
     sodipodi:cx="164.82201"
     sodipodi:cy="487.50574"
     sodipodi:rx="0.27738473"
     sodipodi:ry="0"
     d="M 164.84155,487.50574 A 0.27738473,0 0 1 1 164.85006,487.50574"
     sodipodi:start="1.5002801"
     sodipodi:end="4.8136924"
     sodipodi:open="true"
     transform="translate(-29.853301,-63.769442)" />
  <g
     id="g2437"
     transform="translate(-29.853301,-63.769442)">
    <path
       id="path2476"
       d="M 30.353301,466.5646 L 30.353301,531.51105 L 38.82399,531.51105 L 38.682812,501.85844 L 70.306717,501.85844 L 70.447895,531.6557 L 79.342118,531.36641 L 79.483296,466.41995 L 70.02436,466.41995 L 70.165538,493.46893 L 39.247524,493.90286 L 39.247524,466.5646 L 30.353301,466.5646 z"
       style="opacity:1;fill:#95b3b9;fill-opacity:1;fill-rule:evenodd;stroke:#a5c1ca;stroke-width:0.99999994;stroke-opacity:1" />
    <path
       transform="matrix(1.1496351,0,0,1.3045113,-34.202723,-181.07599)"
       d="M 148.37823,528.11481 A 19.341406,18.776693 0 1 1 109.69541,528.11481 A 19.341406,18.776693 0 1 1 148.37823,528.11481 z"
       sodipodi:ry="18.776693"
       sodipodi:rx="19.341406"
       sodipodi:cy="528.11481"
       sodipodi:cx="129.03682"
       id="path3256"
       style="opacity:1;fill:none;fill-opacity:1;fill-rule:evenodd;stroke:#a5c1ca;stroke-width:0.81657505;stroke-opacity:1"
       sodipodi:type="arc" />
    <path
       transform="matrix(1.4754098,0,0,1.1421569,-58.188543,-71.610744)"
       d="M 125.3662,507.22046 A 8.611867,14.400171 0 1 1 108.14247,507.22046 A 8.611867,14.400171 0 1 1 125.3662,507.22046 z"
       sodipodi:ry="14.400171"
       sodipodi:rx="8.611867"
       sodipodi:cy="507.22046"
       sodipodi:cx="116.75433"
       id="path3258"
       style="opacity:1;fill:none;fill-opacity:1;fill-rule:evenodd;stroke:#a5c1ca;stroke-width:0.77033705;stroke-opacity:1"
       sodipodi:type="arc" />
    <path
       sodipodi:nodetypes="cscccscc"
       inkscape:transform-center-y="-0.2564327"
       inkscape:transform-center-x="-2.1122645"
       id="path3376"
       d="M 178.24872,484.99805 C 178.24872,484.99805 145.70678,475.78762 143.68953,506.38161 C 141.49036,539.31156 174.22895,532.21264 174.22895,532.21264 L 178.10201,531.06105 L 176.70052,521.80141 C 176.70052,521.80141 154.42007,531.39958 153.88196,509.57172 C 153.26363,484.48983 176.35398,493.60907 176.35398,493.60907 L 178.24872,484.99805 z"
       style="opacity:1;fill:#eaeff4;fill-opacity:1;fill-rule:nonzero;stroke:#a8bac5;stroke-width:0.99999994;stroke-opacity:1" />
    <path
       sodipodi:nodetypes="cccscccccscccc"
       id="path3384"
       d="M 189.00174,462.21639 L 198.78265,462.07255 L 198.49498,492.13447 C 198.49498,492.13447 204.10461,482.4974 214.46087,483.79193 C 224.81713,485.08646 227.4062,492.85366 227.4062,492.85366 L 227.26236,531.9773 L 218.48831,531.9773 L 218.48831,498.31946 C 217.95647,496.63444 217.04275,495.20466 215.83138,493.94528 C 213.89882,492.22398 210.03386,491.83823 206.54985,493.57283 C 199.21401,497.22515 198.92648,504.79212 198.92648,504.79212 L 198.49498,531.83346 L 188.71406,531.9773 L 189.00174,462.21639 z"
       style="opacity:1;fill:#eaeff4;fill-opacity:1;fill-rule:nonzero;stroke:#a8bac5;stroke-opacity:1" />
    <path
       sodipodi:nodetypes="cscccscc"
       inkscape:transform-center-y="-0.2564327"
       inkscape:transform-center-x="-2.1122645"
       id="path3392"
       d="M 313.60771,486.41001 C 313.60771,486.41001 281.06577,477.19958 279.04852,507.79357 C 276.84935,540.72352 309.58794,533.6246 309.58794,533.6246 L 313.461,532.47301 L 312.05951,523.21337 C 312.05951,523.21337 289.77906,532.81154 289.24095,510.98368 C 288.62262,485.90179 311.71297,495.02103 311.71297,495.02103 L 313.60771,486.41001 z"
       style="opacity:1;fill:#eaeff4;fill-opacity:1;fill-rule:nonzero;stroke:#a8bac5;stroke-width:0.99999994;stroke-opacity:1" />
    <path
       sodipodi:nodetypes="cccscccccscccc"
       id="path3394"
       d="M 325.29379,463.16166 L 335.0747,463.01782 L 334.78703,493.07974 C 334.78703,493.07974 340.39666,483.44267 350.75292,484.7372 C 361.10918,486.03173 363.69825,493.79893 363.69825,493.79893 L 363.55441,532.92257 L 354.78036,532.92257 L 354.78036,499.26473 C 354.24852,497.57971 353.3348,496.14993 352.12343,494.89055 C 350.19087,493.16925 346.32591,492.7835 342.8419,494.5181 C 335.50606,498.17042 335.21853,505.73739 335.21853,505.73739 L 334.78703,532.77873 L 325.00611,532.92257 L 325.29379,463.16166 z"
       style="opacity:1;fill:#eaeff4;fill-opacity:1;fill-rule:nonzero;stroke:#a8bac5;stroke-opacity:1" />
    <path
       sodipodi:nodetypes="ccccccccccsssccc"
       id="path3398"
       d="M 379.87681,486.30475 L 379.98105,524.04224 C 379.98105,524.04224 381.44052,529.77583 385.92315,532.59051 C 391.22454,535.73482 399.35163,534.79173 403.22818,531.75653 C 406.56409,529.98433 409.9,524.56348 409.9,524.56348 L 409.79576,533.42263 L 418.34403,533.52936 L 419.07376,486.30475 L 409.27452,486.09626 L 408.44054,516.84918 C 408.44054,516.84918 407.53921,519.27832 405.23152,521.88336 C 403.7639,523.5401 402.09996,525.39215 398.53705,526.33568 C 396.88292,526.77373 395.41623,526.5578 394.13467,526.29603 C 389.47537,525.34434 389.67604,519.24687 389.67604,519.24687 L 389.15481,486.30475 L 379.87681,486.30475 z"
       style="opacity:1;fill:#eaeff4;fill-opacity:1;fill-rule:nonzero;stroke:#a8bac5;stroke-opacity:1" />
    <path
       sodipodi:nodetypes="ccccc"
       id="path3400"
       d="M 434.88101,464.50525 L 434.09358,533.7537 L 443.69266,533.57824 L 444.45278,464.5504 L 434.88101,464.50525 z"
       style="opacity:1;fill:#eaeff4;fill-opacity:1;fill-rule:nonzero;stroke:#a8bac5;stroke-width:1;stroke-opacity:1" />
    <path
       sodipodi:nodetypes="cccscscc"
       id="path2390"
       d="M 529.31637,470.16744 L 529.31637,533.69483 L 553.23,534.04842 C 553.23,534.04842 569.75004,532.39835 570.09662,516.84063 C 570.44319,501.2829 558.08205,500.69359 558.08205,500.69359 C 558.08205,500.69359 569.519,497.62919 569.40347,484.90014 C 569.26356,469.34128 551.95923,469.93172 551.95923,469.93172 L 529.31637,470.16744 z"
       style="opacity:1;fill:none;fill-opacity:1;fill-rule:nonzero;stroke:#0052f7;stroke-width:1;stroke-opacity:1" />
    <path
       id="path3164"
       d="M 538.39168,476.88555 L 538.27382,497.39347 L 551.35646,497.51133 C 551.35646,497.51133 560.07821,496.09699 560.07821,487.49309 C 560.07821,478.8892 552.41721,477.47486 552.41721,477.47486 L 538.39168,476.88555 z"
       style="opacity:1;fill:none;fill-opacity:1;fill-rule:nonzero;stroke:#0263ff;stroke-opacity:1" />
    <path
       sodipodi:nodetypes="cccscc"
       id="path3166"
       d="M 538.57037,504.87763 L 538.4506,526.55744 L 551.74539,526.68203 C 551.74539,526.68203 560.60857,524.83329 560.60857,515.73774 C 560.60857,506.6422 552.82334,505.14703 552.82334,505.14703 L 538.57037,504.87763 z"
       style="opacity:1;fill:none;fill-opacity:1;fill-rule:nonzero;stroke:#0263ff;stroke-width:1;stroke-opacity:1" />
    <path
       sodipodi:nodetypes="ccccsccscsc"
       id="path3168"
       d="M 584.23984,487.84668 L 584.23984,534.28414 L 593.5509,534.28414 L 594.02234,506.23308 C 594.02234,506.23308 596.62394,496.53762 601.2119,496.09699 C 605.32218,495.70224 607.57643,496.09699 607.57643,496.09699 L 607.81215,486.90379 C 607.81215,486.90379 602.1548,485.96089 597.91178,490.08605 C 593.66876,494.2112 592.96159,496.92202 592.96159,496.92202 C 592.96159,496.92202 593.5509,487.61096 593.07946,487.72882 C 592.60801,487.84668 584.3577,487.96454 584.23984,487.84668 z"
       style="opacity:1;fill:none;fill-opacity:0.16470588;fill-rule:nonzero;stroke:#0052f7;stroke-opacity:1" />
    <path
       sodipodi:nodetypes="ccccsccscsc"
       id="path3176"
       d="M 799.28913,489.97399 L 799.28913,536.41145 L 808.60019,536.41145 L 809.07163,508.36039 C 809.07163,508.36039 811.67323,498.66493 816.26119,498.2243 C 820.37147,497.82955 822.62572,498.2243 822.62572,498.2243 L 822.86144,489.0311 C 822.86144,489.0311 817.20409,488.0882 812.96107,492.21336 C 808.71805,496.33851 808.01088,499.04933 808.01088,499.04933 C 808.01088,499.04933 808.60019,489.73827 808.12875,489.85613 C 807.6573,489.97399 799.40699,490.09185 799.28913,489.97399 z"
       style="opacity:1;fill:none;fill-opacity:1;fill-rule:nonzero;stroke:#0052f7;stroke-opacity:1" />
    <path
       sodipodi:nodetypes="cccscccccscccc"
       id="path3178"
       d="M 833.69413,467.35643 L 843.47504,467.21259 L 843.18737,497.27451 C 843.18737,497.27451 848.797,487.63744 859.15326,488.93197 C 869.50952,490.2265 872.09859,497.9937 872.09859,497.9937 L 871.95475,537.11734 L 863.1807,537.11734 L 863.1807,503.4595 C 862.64886,501.77448 861.73514,500.3447 860.52377,499.08532 C 858.59121,497.36402 854.72625,496.97827 851.24224,498.71287 C 843.9064,502.36519 843.61887,509.93216 843.61887,509.93216 L 843.18737,536.9735 L 833.40645,537.11734 L 833.69413,467.35643 z"
       style="opacity:1;fill:none;fill-opacity:1;fill-rule:nonzero;stroke:#0052f7;stroke-opacity:1" />
    <path
       sodipodi:nodetypes="cscscsccccccccscscc"
       id="path3180"
       d="M 267.61931,485.65201 C 267.61931,485.65201 254.59628,483.22293 248.15997,487.0156 C 241.09449,491.17901 240.51348,497.21736 240.51348,497.21736 C 240.51348,497.21736 239.18014,503.63415 243.14431,507.1034 C 247.82007,511.19539 254.46658,512.43623 254.46658,512.43623 C 254.46658,512.43623 261.86804,513.77623 260.60275,519.91227 C 259.67636,524.40481 255.83017,524.8553 255.83017,524.8553 C 250.84959,526.24052 244.26726,524.897 241.17155,524.62899 L 241.0011,532.8664 L 250.3758,532.97956 C 250.3758,532.97956 258.43585,533.06949 263.15948,530.48012 C 269.95309,526.68275 272.00593,517.53824 269.14448,512.165 C 267.31107,508.04016 260.9896,506.27339 260.9896,506.27339 C 260.9896,506.27339 254.27094,503.91378 254.36876,504.0116 C 254.36876,504.0116 249.42574,502.64949 249.6451,498.14222 C 249.83585,494.22283 252.12772,493.15177 252.12772,493.15177 C 252.12772,493.15177 253.43217,491.75016 256.52226,491.54799 C 259.63041,491.34464 264.53252,492.3416 267.37617,492.64634 L 267.61931,485.65201 z"
       style="opacity:1;fill:none;fill-opacity:1;fill-rule:nonzero;stroke:#95b3b9;stroke-opacity:1" />
    <path
       sodipodi:nodetypes="ccscscscccscscsccscscc"
       id="path3186"
       d="M 465.72987,510.44866 L 495.88083,510.3023 C 495.88083,510.3023 496.51416,501.65232 494.27082,496.69046 C 491.7255,491.06066 487.52971,488.61433 487.52971,488.61433 C 487.52971,488.61433 482.55571,484.75444 471.7914,486.63423 C 466.81169,487.50384 463.74139,490.43969 463.74139,490.43969 C 463.74139,490.43969 459.59592,493.84192 457.82622,499.17865 C 456.25971,503.90263 456.31034,505.81924 456.31034,505.81924 L 456.26909,507.00451 L 456.13885,509.72522 C 456.14615,509.80556 455.93252,515.43581 456.85391,519.2305 C 458.35105,525.39636 460.41687,527.39472 460.41687,527.39472 C 460.41687,527.39472 463.33364,531.06911 467.29463,532.7057 C 471.93169,534.62162 475.59551,534.60573 475.59551,534.60573 C 475.59551,534.60573 479.22769,535.0032 485.12794,534.47178 C 488.7015,534.14993 494.12446,532.11052 494.12446,532.11052 L 493.68537,524.4996 C 493.68537,524.4996 487.38644,526.73859 482.28843,527.24135 C 477.43898,527.7196 471.87715,525.81687 471.87715,525.81687 C 471.87715,525.81687 468.67658,524.64596 467.21294,521.42596 C 465.74931,518.20595 465.66155,513.29845 465.66155,513.29845 L 465.72987,510.44866 z"
       style="opacity:1;fill:none;fill-opacity:1;fill-rule:nonzero;stroke:#95b3b9;stroke-opacity:1" />
    <path
       sodipodi:nodetypes="ccscsscssc"
       id="path3188"
       d="M 465.97895,503.96961 L 486.97922,503.92232 C 486.97922,503.92232 487.263,500.09119 485.93866,497.72629 C 484.61432,495.36139 483.00619,494.46274 483.00619,494.46274 C 483.00619,494.46274 482.45033,494.00798 480.98278,493.53934 C 480.05716,493.24376 478.96772,493.07058 477.61423,492.9965 C 474.68271,492.83605 472.74255,493.42218 472.74255,493.42218 C 472.74255,493.42218 470.43928,494.11516 468.91142,495.78707 C 467.67779,497.13702 467.16139,498.34116 466.59382,499.6655 C 466.12692,500.75495 465.93165,503.92232 465.97895,503.96961 z"
       style="opacity:1;fill:none;fill-opacity:1;fill-rule:nonzero;stroke:#95b3b9;stroke-opacity:1" />
    <path
       sodipodi:nodetypes="ccscscscccscscsccscscc"
       id="path3192"
       d="M 623.12058,511.79125 L 653.27154,511.64489 C 653.27154,511.64489 653.90487,502.99491 651.66153,498.03305 C 649.11621,492.40325 644.92042,489.95692 644.92042,489.95692 C 644.92042,489.95692 639.94642,486.09703 629.18211,487.97682 C 624.2024,488.84643 621.1321,491.78228 621.1321,491.78228 C 621.1321,491.78228 616.98663,495.18451 615.21693,500.52124 C 613.65042,505.24522 613.70105,507.16183 613.70105,507.16183 L 613.6598,508.3471 L 613.52956,511.06781 C 613.53686,511.14815 613.32323,516.7784 614.24462,520.57309 C 615.74176,526.73895 617.80758,528.73731 617.80758,528.73731 C 617.80758,528.73731 620.72435,532.4117 624.68534,534.04829 C 629.3224,535.96421 632.98622,535.94832 632.98622,535.94832 C 632.98622,535.94832 636.6184,536.34579 642.51865,535.81437 C 646.09221,535.49252 651.51517,533.45311 651.51517,533.45311 L 651.07608,525.84219 C 651.07608,525.84219 644.77715,528.08118 639.67914,528.58394 C 634.82969,529.06219 629.26786,527.15946 629.26786,527.15946 C 629.26786,527.15946 626.06729,525.98855 624.60365,522.76855 C 623.14002,519.54854 623.05226,514.64104 623.05226,514.64104 L 623.12058,511.79125 z"
       style="opacity:1;fill:none;fill-opacity:1;fill-rule:nonzero;stroke:#0052f7;stroke-opacity:1" />
    <path
       sodipodi:nodetypes="ccscsscssc"
       id="path3194"
       d="M 623.36966,505.3122 L 644.36993,505.26491 C 644.36993,505.26491 644.65371,501.43378 643.32937,499.06888 C 642.00503,496.70398 640.3969,495.80533 640.3969,495.80533 C 640.3969,495.80533 639.84104,495.35057 638.37349,494.88193 C 637.44787,494.58635 636.35843,494.41317 635.00494,494.33909 C 632.07342,494.17864 630.13326,494.76477 630.13326,494.76477 C 630.13326,494.76477 627.82999,495.45775 626.30213,497.12966 C 625.0685,498.47961 624.5521,499.68375 623.98453,501.00809 C 623.51763,502.09754 623.32236,505.26491 623.36966,505.3122 z"
       style="opacity:1;fill:none;fill-opacity:1;fill-rule:nonzero;stroke:#0362fb;stroke-opacity:1" />
    <path
       sodipodi:nodetypes="ccscscscccscscsccscscc"
       id="path3196"
       d="M 755.63121,512.77281 L 785.78217,512.62645 C 785.78217,512.62645 786.4155,503.97647 784.17216,499.01461 C 781.62684,493.38481 777.43105,490.93848 777.43105,490.93848 C 777.43105,490.93848 772.45705,487.07859 761.69274,488.95838 C 756.71303,489.82799 753.64273,492.76384 753.64273,492.76384 C 753.64273,492.76384 749.49726,496.16607 747.72756,501.5028 C 746.16105,506.22678 746.21168,508.14339 746.21168,508.14339 L 746.17043,509.32866 L 746.04019,512.04937 C 746.04749,512.12971 745.83386,517.75996 746.75525,521.55465 C 748.25239,527.72051 750.31821,529.71887 750.31821,529.71887 C 750.31821,529.71887 753.23498,533.39326 757.19597,535.02985 C 761.83303,536.94577 765.49685,536.92988 765.49685,536.92988 C 765.49685,536.92988 769.12903,537.32735 775.02928,536.79593 C 778.60284,536.47408 784.0258,534.43467 784.0258,534.43467 L 783.58671,526.82375 C 783.58671,526.82375 777.28778,529.06274 772.18977,529.5655 C 767.34032,530.04375 761.77849,528.14102 761.77849,528.14102 C 761.77849,528.14102 758.57792,526.97011 757.11428,523.75011 C 755.65065,520.5301 755.56289,515.6226 755.56289,515.6226 L 755.63121,512.77281 z"
       style="opacity:1;fill:none;fill-opacity:1;fill-rule:nonzero;stroke:#0052f7;stroke-opacity:1" />
    <path
       sodipodi:nodetypes="ccscsscssc"
       id="path3198"
       d="M 755.88029,506.29376 L 776.88056,506.24647 C 776.88056,506.24647 777.16434,502.41534 775.84,500.05044 C 774.51566,497.68554 772.90753,496.78689 772.90753,496.78689 C 772.90753,496.78689 772.35167,496.33213 770.88412,495.86349 C 769.9585,495.56791 768.86906,495.39473 767.51557,495.32065 C 764.58405,495.1602 762.64389,495.74633 762.64389,495.74633 C 762.64389,495.74633 760.34062,496.43931 758.81276,498.11122 C 757.57913,499.46117 757.06273,500.66531 756.49516,501.98965 C 756.02826,503.0791 755.83299,506.24647 755.88029,506.29376 z"
       style="opacity:1;fill:none;fill-opacity:1;fill-rule:nonzero;stroke:#0362fb;stroke-opacity:1" />
    <path
       sodipodi:nodetypes="ccscscscccscscsccscscc"
       id="path3200"
       d="M 988.58817,514.40874 L 1018.7391,514.26238 C 1018.7391,514.26238 1019.3724,505.6124 1017.1291,500.65054 C 1014.5838,495.02074 1010.388,492.57441 1010.388,492.57441 C 1010.388,492.57441 1005.414,488.71452 994.64974,490.59431 C 989.66999,491.46392 986.59969,494.39977 986.59969,494.39977 C 986.59969,494.39977 982.45422,497.802 980.68452,503.13873 C 979.11801,507.86271 979.16864,509.77932 979.16864,509.77932 L 979.12739,510.96459 L 978.99715,513.6853 C 979.00445,513.76564 978.79082,519.39589 979.71221,523.19058 C 981.20935,529.35644 983.27517,531.3548 983.27517,531.3548 C 983.27517,531.3548 986.19194,535.02919 990.15293,536.66578 C 994.78994,538.5817 998.45384,538.56581 998.45384,538.56581 C 998.45384,538.56581 1002.0859,538.96328 1007.9862,538.43186 C 1011.5598,538.11001 1016.9827,536.0706 1016.9827,536.0706 L 1016.5436,528.45968 C 1016.5436,528.45968 1010.2447,530.69867 1005.1467,531.20143 C 1000.2972,531.67968 994.73544,529.77695 994.73544,529.77695 C 994.73544,529.77695 991.53484,528.60604 990.07124,525.38604 C 988.60761,522.16603 988.51985,517.25853 988.51985,517.25853 L 988.58817,514.40874 z"
       style="opacity:1;fill:none;fill-opacity:1;fill-rule:nonzero;stroke:#0052f7;stroke-opacity:1" />
    <path
       sodipodi:nodetypes="ccscsscssc"
       id="path3202"
       d="M 988.83725,507.92969 L 1009.8375,507.8824 C 1009.8375,507.8824 1010.1213,504.05127 1008.7969,501.68637 C 1007.4726,499.32147 1005.8644,498.42282 1005.8644,498.42282 C 1005.8644,498.42282 1005.3086,497.96806 1003.841,497.49942 C 1002.9154,497.20384 1001.826,497.03066 1000.4725,496.95658 C 997.54104,496.79613 995.60084,497.38226 995.60084,497.38226 C 995.60084,497.38226 993.29754,498.07524 991.76974,499.74715 C 990.53609,501.0971 990.01969,502.30124 989.45212,503.62558 C 988.98522,504.71503 988.78995,507.8824 988.83725,507.92969 z"
       style="opacity:1;fill:none;fill-opacity:1;fill-rule:nonzero;stroke:#0362fb;stroke-opacity:1" />
    <path
       id="path3204"
       d="M 930.08983,490.42374 L 947.50306,537.07201 L 956.76881,537.07201 L 974.82105,490.74325 L 965.07604,490.5835 L 952.77495,526.04896 L 940.15436,490.42374 L 930.08983,490.42374 z"
       style="opacity:1;fill:none;fill-opacity:1;fill-rule:nonzero;stroke:#0052f7;stroke-opacity:1" />
    <path
       sodipodi:nodetypes="cccsccscscscsccccscscsccccscscsccccc"
       id="path3206"
       d="M 666.3354,488.50669 L 675.12189,488.50669 L 675.12189,497.77244 C 675.12189,497.77244 678.79624,491.70178 682.31083,489.94448 C 685.82543,488.18718 685.82543,488.18718 685.82543,488.18718 L 689.34003,487.54817 C 689.34003,487.54817 695.57045,487.22866 698.76553,489.94448 C 701.96062,492.6603 703.71792,497.9322 703.71792,497.9322 C 703.71792,497.9322 707.66704,492.84336 710.94434,490.54405 C 714.18282,488.27199 717.29704,487.86767 717.29704,487.86767 C 717.29704,487.86767 722.40918,487.0689 726.24328,488.8262 C 730.07739,490.5835 731.92248,492.96581 732.0141,493.08797 C 732.0141,493.08797 732.86567,494.03487 733.47692,495.87405 C 733.86392,497.03847 733.8951,499.08326 733.8951,499.08326 L 734.07124,536.11349 L 724.32623,535.95373 L 724.48598,502.24557 C 724.48598,502.24557 724.00672,497.45294 720.97139,496.33465 C 717.93606,495.21637 715.69949,495.68972 715.69949,495.68972 C 715.69949,495.68972 712.54977,495.96782 710.43154,497.81781 C 707.68772,500.21417 706.75719,502.92995 706.75719,502.92995 C 706.75719,502.92995 706.5935,502.88458 705.63497,505.91992 C 704.67644,508.95525 704.8362,513.58812 704.8362,513.58812 L 704.35694,535.63423 L 695.25094,535.63423 L 695.57045,501.12729 C 695.57045,501.12729 695.10983,498.43671 693.17413,496.81392 C 691.34728,495.28239 689.18027,495.24057 689.18027,495.24057 C 689.18027,495.24057 686.38835,494.97649 684.22789,496.01515 C 681.06689,497.53482 679.59149,499.70008 679.59149,499.70008 C 679.59149,499.70008 678.60906,500.72687 677.51468,502.73541 C 676.58739,504.43727 676.36867,505.46837 676.36867,505.46837 L 676.11702,506.46584 L 675.97165,535.31472 L 666.38639,535.47447 L 666.3354,488.50669 z"
       style="opacity:1;fill:none;fill-opacity:1;fill-rule:nonzero;stroke:#0052f7;stroke-opacity:1" />
    <path
       sodipodi:nodetypes="ccscscscccccscscscscccscccssscc"
       id="path3208"
       d="M 888.09488,500.00201 L 888.01948,492.44185 C 888.01948,492.44185 892.23088,490.51188 894.4854,489.95496 C 896.77334,489.38979 900.33039,489.21492 900.33039,489.21492 C 900.33039,489.21492 903.70368,489.11164 907.74355,489.39802 C 910.5501,489.59698 913.95476,490.71909 913.95476,490.71909 C 913.95476,490.71909 917.20103,492.10084 918.95642,494.03346 C 921.07547,496.36646 921.78546,498.95909 921.78546,498.95909 L 922.02812,500.11225 L 922.04017,537.50434 L 913.58473,537.50434 L 913.58087,528.27987 C 913.58087,528.27987 910.22878,532.42149 909.10833,533.52531 C 907.81514,534.79931 906.02458,535.91273 906.02458,535.91273 C 906.02458,535.91273 903.53769,537.50434 901.34922,537.80277 C 899.16076,538.10119 895.2085,537.8334 895.2085,537.8334 C 895.2085,537.8334 892.05189,537.62285 889.51162,535.91273 C 888.22263,535.04498 886.73775,533.22689 886.73775,533.22689 C 886.73775,533.22689 885.08874,531.23737 884.69084,527.95467 C 884.29293,524.67198 884.80563,522.02821 884.80563,522.02821 C 885.64506,517.84633 887.63896,515.98822 889.5537,514.55609 C 891.69672,512.97653 893.60596,512.24132 893.60596,512.24132 C 893.60596,512.24132 895.1171,511.45375 898.43655,510.76122 C 900.72858,510.28305 904.23402,510.04905 904.23402,510.04905 L 912.54246,509.81842 L 912.53042,502.28995 C 912.53042,502.28995 912.1452,499.74673 910.52887,498.29887 C 908.60183,496.57271 906.16363,496.49017 904.53245,496.32141 C 902.64621,496.12626 900.48128,496.35555 899.38759,496.4608 C 897.48487,496.64391 893.29169,498.02454 893.29169,498.02454 L 888.09488,500.00201 z"
       style="opacity:1;fill:none;fill-opacity:1;fill-rule:nonzero;stroke:#0052f7;stroke-opacity:1" />
    <path
       sodipodi:nodetypes="ccscsccccscsc"
       id="path3210"
       d="M 912.29572,515.71085 L 906.73897,515.66376 C 906.73897,515.66376 903.02159,515.87625 900.61713,516.5114 C 898.12131,517.17067 896.75566,518.20667 896.75566,518.20667 C 896.75566,518.20667 895.06038,519.19559 894.21274,520.84378 C 893.3651,522.49196 893.31801,524.79943 893.31801,524.79943 C 893.31801,524.79943 893.21982,526.73279 894.07147,528.14289 C 895.23271,529.78289 896.90499,530.41832 898.87476,530.68582 C 901.05754,530.82905 903.25423,530.12073 903.25423,530.12073 C 903.25423,530.12073 905.46752,529.36726 907.02152,528.23708 C 908.45513,527.19446 910.22371,524.65815 910.22371,524.65815 C 910.22371,524.65815 911.63645,522.96287 911.91899,521.50305 C 912.20154,520.04323 912.34281,515.66376 912.29572,515.71085 z"
       style="opacity:1;fill:none;fill-opacity:1;fill-rule:nonzero;stroke:#0052f7;stroke-opacity:1" />
    <path
       sodipodi:nodetypes="cccsccsscccscscsccccc"
       id="path3212"
       d="M 1031.814,491.33612 L 1040.6005,491.33612 L 1040.6005,500.60187 C 1040.6005,500.60187 1044.7275,495.12798 1047.8738,492.77391 C 1049.6586,491.43852 1051.6415,490.84785 1051.6415,490.84785 L 1052.7091,490.54636 C 1052.7091,490.54636 1060.5632,489.49336 1065.0295,492.16308 C 1068.2442,494.08471 1070.0048,497.48379 1070.2524,500.39903 C 1070.9333,508.41656 1069.8355,538.46366 1069.8355,538.46366 L 1060.7295,538.46366 L 1061.049,503.95672 C 1061.049,503.95672 1060.5884,501.26614 1058.6527,499.64335 C 1056.8259,498.11182 1054.6589,498.07 1054.6589,498.07 C 1054.6589,498.07 1051.8669,497.80592 1049.7065,498.84458 C 1046.5455,500.36425 1045.0701,502.52951 1045.0701,502.52951 C 1045.0701,502.52951 1044.0876,503.5563 1042.9933,505.56484 C 1042.066,507.2667 1041.8473,508.2978 1041.8473,508.2978 L 1041.5956,509.29527 L 1041.4502,538.14415 L 1031.865,538.3039 L 1031.814,491.33612 z"
       style="opacity:1;fill:#0052f6;fill-opacity:0.43921569;fill-rule:nonzero;stroke:#0052f7;stroke-opacity:1" />
    <path
       id="path3214"
       d="M 111.62312,531.58675 C 109.3261,531.30412 106.00388,530.14069 103.92361,528.89041 C 98.480894,525.61924 94.749548,520.30177 93.080809,513.43852 C 92.46944,510.92404 92.535559,504.45555 93.199629,501.8149 C 95.365485,493.20243 101.17763,486.88549 108.99566,484.64697 C 110.50139,484.21583 111.30988,484.13531 114.13311,484.13531 C 116.95633,484.13531 117.76483,484.21583 119.27055,484.64697 C 127.01654,486.86486 132.79994,493.08581 135.03959,501.60901 C 135.63147,503.86145 135.85723,509.12413 135.47457,511.74872 C 135.11133,514.24019 134.07392,517.43511 132.87321,519.76019 C 128.64201,527.95359 120.21451,532.64384 111.62312,531.58674 L 111.62312,531.58675 z M 116.8057,524.33186 C 121.55691,523.09433 125.51471,518.29253 126.90424,512.07981 C 127.72901,508.39219 127.24373,503.21038 125.73873,499.63469 C 123.91773,495.30817 120.19221,491.82021 116.47846,490.96489 C 111.87956,489.90571 106.89383,492.22492 103.88359,496.82363 C 100.5932,501.8503 99.907443,509.35731 102.19643,515.29285 C 103.05899,517.52953 104.79886,520.13797 106.3509,521.52128 C 107.73124,522.75156 110.12737,524.10835 111.48119,524.42627 C 112.85502,524.74887 115.37628,524.70418 116.8057,524.33186 L 116.8057,524.33186 z"
       style="opacity:1;fill:#95b3b9;fill-opacity:1;fill-rule:nonzero;stroke:#95b3b9;stroke-width:1;stroke-opacity:1" />
    <path
       id="path3216"
       d="M 163.6089,532.11717 C 161.55033,531.90629 158.01512,531.0408 156.16654,530.29511 C 150.19424,527.88598 146.50884,523.39786 144.89711,516.57107 C 144.35482,514.27408 144.30546,513.67181 144.3072,509.37362 C 144.30863,505.85706 144.40698,504.16005 144.70008,502.59409 C 146.16387,494.77358 149.7868,489.58711 155.79106,486.71653 C 159.44543,484.9694 164.77124,484.06302 169.7515,484.34064 C 172.3162,484.48361 177.12705,485.17997 177.39393,485.44686 C 177.5454,485.5983 176.13676,492.31742 175.89891,492.57813 C 175.80838,492.67734 174.94103,492.55742 173.97144,492.31161 C 165.13667,490.07192 158.29476,492.30365 155.35359,498.38447 C 153.84821,501.49679 153.46375,503.5401 153.45404,508.48015 C 153.44439,513.38012 153.71761,514.90103 155.14798,517.91057 C 156.61323,520.99346 158.83117,522.83533 162.39207,523.9263 C 163.42411,524.24249 164.41848,524.32937 166.84773,524.31558 C 170.07022,524.29729 171.93891,524.0053 174.73569,523.08308 C 175.51137,522.82731 176.17656,522.6535 176.21393,522.69684 C 176.32651,522.82738 177.46365,530.55026 177.3823,530.63163 C 177.07496,530.93896 173.33464,531.81628 171.46419,532.01976 C 169.32855,532.25209 165.40151,532.30079 163.6089,532.11716 L 163.6089,532.11717 z"
       style="opacity:1;fill:#95b3b9;fill-opacity:1;fill-rule:nonzero;stroke:#95b3b9;stroke-width:1;stroke-opacity:1" />
    <path
       id="path3218"
       d="M 189.41758,497.14427 C 189.50523,478.31723 189.58912,462.9021 189.60405,462.88844 C 189.61899,462.87477 191.56027,462.80186 193.91804,462.72641 L 198.20495,462.58922 L 198.07823,478.16357 C 197.99608,488.2618 198.02795,493.65939 198.1689,493.51456 C 198.28844,493.39171 198.85294,492.62637 199.42333,491.8138 C 200.72274,489.96265 203.31195,487.48652 205.05611,486.42699 C 209.4725,483.74418 215.01093,483.6036 220.06959,486.0459 C 221.63345,486.80093 222.37818,487.34588 223.83201,488.79902 C 224.86072,489.82726 225.89916,491.11472 226.2332,491.77604 L 226.82177,492.94129 L 226.82177,507.7667 C 226.82177,515.92068 226.75559,524.56833 226.67469,526.9837 L 226.52762,531.37527 L 222.76579,531.37527 L 219.00393,531.37527 L 219.00373,514.67859 L 219.00357,497.9819 L 218.36365,496.6417 C 217.59071,495.0229 216.11548,493.30968 215.01196,492.74929 C 213.77714,492.12223 211.7225,491.77146 210.25609,491.93736 C 205.156,492.51438 200.73824,496.36957 198.97816,501.77914 C 198.40406,503.54367 198.39452,503.68371 198.21833,512.94749 C 198.12018,518.10727 198.0326,524.36434 198.02366,526.85209 L 198.00743,531.37527 L 193.63283,531.37527 L 189.25823,531.37527 L 189.41758,497.14427 z"
       style="opacity:1;fill:#95b3b9;fill-opacity:1;fill-rule:nonzero;stroke:#95b3b9;stroke-width:1;stroke-opacity:1" />
    <path
       id="path3220"
       d="M 297.18239,533.26793 C 294.55816,532.85641 291.85269,531.96881 289.47622,530.73973 C 287.8806,529.91449 287.05124,529.28533 285.45562,527.68972 C 281.54236,523.77645 279.9108,519.47016 279.61622,512.27739 C 279.32466,505.15787 280.73963,498.92565 283.63716,494.56711 C 284.87663,492.7027 287.44318,490.21438 289.27372,489.1024 C 293.41258,486.58817 299.31128,485.42224 305.82339,485.8312 C 308.26499,485.98454 312.57041,486.6031 312.80099,486.83368 C 312.89188,486.92458 311.96698,491.47722 311.4578,493.4452 L 311.24455,494.26931 L 310.11275,493.9332 C 306.67741,492.91301 301.91232,492.62648 299.12644,493.27256 C 296.51389,493.87845 294.85374,494.78609 293.07476,496.58115 C 291.19416,498.47873 290.13259,500.45916 289.33066,503.56608 C 288.86938,505.35311 288.813,506.07253 288.82301,510.04372 C 288.83277,513.91791 288.89862,514.74363 289.31888,516.26269 C 290.62645,520.98894 293.26625,523.93795 297.38355,525.27215 C 297.9597,525.45886 299.68622,525.65718 301.31468,525.72372 C 304.50011,525.85388 306.77866,525.54388 309.88346,524.55793 C 310.81128,524.26329 311.58612,524.04329 311.60535,524.06903 C 311.76834,524.28728 312.76315,531.96049 312.64178,532.06309 C 312.26685,532.37996 308.96004,533.18884 307.22332,533.3885 C 304.61837,533.68798 299.46638,533.62611 297.18239,533.26794 L 297.18239,533.26793 z"
       style="opacity:1;fill:#95b3b9;fill-opacity:1;fill-rule:nonzero;stroke:#95b3b9;stroke-width:1;stroke-opacity:1" />
    <path
       id="path3222"
       d="M 325.62501,517.48967 C 325.7066,509.36118 325.77337,493.9321 325.77337,483.20283 L 325.77337,463.69506 L 330.14488,463.69506 L 334.5164,463.69506 L 334.36212,479.27491 L 334.20784,494.85476 L 335.38561,493.17951 C 336.92184,490.9944 339.62306,488.36966 341.42572,487.31041 C 343.85089,485.88538 346.02373,485.30258 348.89185,485.30785 C 353.61689,485.31654 357.072,486.69773 360.17189,489.81708 C 361.21613,490.86788 362.29667,492.19095 362.57309,492.75724 L 363.07566,493.78686 L 363.07566,513.0278 L 363.07566,532.26874 L 359.16674,532.26874 L 355.25781,532.26874 L 355.25781,515.50984 L 355.25781,498.75094 L 354.56636,497.38121 C 353.60108,495.46896 351.87823,493.80134 350.33659,493.28701 C 346.59392,492.03837 341.83196,493.57338 338.57431,497.07855 C 337.03533,498.73446 335.43966,501.67296 334.94526,503.76166 C 334.71857,504.71938 334.28941,521.11866 334.26793,529.64418 L 334.26131,532.26874 L 329.86898,532.26874 L 325.47669,532.26874 L 325.62501,517.48967 z"
       style="opacity:1;fill:#95b3b9;fill-opacity:1;fill-rule:nonzero;stroke:#95b3b9;stroke-width:1;stroke-opacity:1" />
    <path
       id="path3224"
       d="M 389.50534,533.40099 C 388.62378,533.16253 387.56837,532.79721 387.15999,532.58918 C 384.69406,531.33296 382.61161,528.94962 381.28387,525.86404 L 380.49829,524.03837 L 380.49829,505.4818 L 380.49829,486.92523 L 384.5189,486.92523 C 386.73023,486.92523 388.54529,486.95036 388.55237,486.98108 C 388.55943,487.01179 388.70055,494.72633 388.86598,504.12449 C 389.1608,520.8725 389.17672,521.24061 389.66885,522.6479 C 390.29613,524.44168 391.98588,526.29002 393.34189,526.66571 C 395.90805,527.37668 398.85356,527.13637 400.9919,526.0416 C 403.55758,524.72802 406.734,521.4083 408.27487,518.42997 L 409.03122,516.9681 L 409.40111,502.78429 C 409.60458,494.9832 409.76839,488.15793 409.7652,487.61702 L 409.75937,486.63356 L 414.02356,486.76239 C 416.36887,486.83324 418.33707,486.94052 418.39733,487.00079 C 418.45759,487.06107 418.3475,496.94433 418.15268,508.96361 C 417.95786,520.9829 417.79893,531.2943 417.79951,531.87785 L 417.80058,532.93884 L 414.11503,532.93884 L 410.42947,532.93884 L 410.42947,527.87331 L 410.42947,522.80778 L 409.28693,524.46697 C 406.57228,528.40916 404.93877,530.09684 402.34519,531.63895 C 399.67553,533.22629 398.04743,533.6563 394.34705,533.75136 C 391.65719,533.82046 390.83654,533.76107 389.50534,533.40099 L 389.50534,533.40099 z"
       style="opacity:1;fill:#95b3b9;fill-opacity:1;fill-rule:nonzero;stroke:#95b3b9;stroke-width:1;stroke-opacity:1" />
    <path
       id="path3236"
       d="M 243.16345,532.28698 L 241.53469,532.1944 L 241.64064,528.89331 C 241.69892,527.07771 241.80902,525.5298 241.88532,525.4535 C 241.96162,525.3772 243.49057,525.47835 245.28298,525.67826 C 250.95222,526.31056 255.14084,526.01477 257.63476,524.80601 C 260.70214,523.3193 262.17978,518.99878 260.66231,515.95362 C 259.64675,513.91563 257.80499,512.75119 253.93116,511.69789 C 247.92324,510.06432 243.56285,507.49277 242.10198,504.72162 C 240.52775,501.73541 240.51124,497.63834 242.06019,494.3516 C 243.99307,490.25021 248.22111,486.92351 252.64224,486.02544 C 255.90569,485.36253 262.97072,485.37314 266.33503,486.046 L 267.00313,486.17962 L 266.92618,488.88657 C 266.88387,490.37539 266.77883,491.66387 266.69278,491.74985 C 266.60672,491.83583 264.77113,491.6829 262.61368,491.40999 C 256.1294,490.58978 253.59526,490.97932 251.22959,493.15992 C 249.97207,494.31906 249.27751,495.90871 249.14345,497.93451 C 249.02408,499.73843 249.42727,500.91576 250.63575,502.29216 C 251.73426,503.54329 252.88471,504.10728 257.75112,505.78038 C 260.20751,506.62489 262.92272,507.65446 263.78493,508.06832 C 265.53512,508.90839 267.38601,510.45575 268.2189,511.77514 C 271.81798,517.47644 268.83664,527.06571 262.52879,530.07698 C 259.13687,531.69623 256.11317,532.22062 249.64477,532.31143 C 246.97588,532.3489 244.05928,532.3379 243.16346,532.28698 L 243.16345,532.28698 z"
       style="opacity:1;fill:#95b3b9;fill-opacity:1;fill-rule:nonzero;stroke:#95b3b9;stroke-width:1;stroke-opacity:1" />
    <path
       id="path3238"
       d="M 434.70808,529.07179 C 434.76797,526.85782 434.91482,514.57482 435.0344,501.77624 C 435.15397,488.97766 435.31348,475.50358 435.38881,471.83384 L 435.52578,465.16159 L 439.69129,465.16159 L 443.85678,465.16159 L 443.85144,467.64301 C 443.84851,469.00779 443.70192,482.23372 443.52571,497.03398 C 443.34947,511.83424 443.20299,526.00311 443.20019,528.52037 L 443.19507,533.0972 L 438.89713,533.0972 L 434.59917,533.0972 L 434.70808,529.07179 z"
       style="opacity:1;fill:#95b3b9;fill-opacity:1;fill-rule:nonzero;stroke:#95b3b9;stroke-width:1;stroke-opacity:1" />
    <path
       id="path3240"
       d="M 475.06746,533.96581 C 469.7571,533.50737 466.00123,531.92029 462.54079,528.67256 C 460.6961,526.94124 460.32093,526.45646 459.43686,524.66167 C 458.3283,522.4111 457.51166,519.80574 457.06854,517.10586 C 456.70777,514.90772 456.71095,506.43364 457.07328,504.42308 C 457.44445,502.36347 458.37257,499.23644 459.07895,497.66543 C 461.03198,493.32179 465.00884,489.47024 469.04338,488.01496 C 473.39754,486.44439 480.72438,486.38465 484.73972,487.88698 C 488.22725,489.19184 491.62934,492.55794 493.49907,496.55366 C 494.70288,499.12626 495.06419,501.0471 495.19058,505.54595 L 495.30578,509.64652 L 480.36855,509.77583 C 472.15309,509.84695 465.36619,509.97122 465.28656,510.05199 C 465.20696,510.13275 465.15451,511.50477 465.17003,513.10092 C 465.22048,518.28665 466.34444,522.03952 468.48741,524.17773 C 469.87881,525.56604 471.30451,526.33195 473.52347,526.88316 C 479.38829,528.34004 483.8553,528.08817 491.11546,525.89125 C 492.17777,525.56979 493.08248,525.34744 493.12589,525.39715 C 493.1693,525.44685 493.27204,526.89775 493.35418,528.62136 L 493.50353,531.75518 L 491.34375,532.42618 C 488.28956,533.37504 486.48234,533.72971 483.44912,533.97553 C 480.45294,534.21835 477.95926,534.21546 475.06746,533.96581 L 475.06746,533.96581 z M 484.50943,504.42308 L 487.59302,504.42308 L 487.46705,502.16224 C 487.30535,499.26052 486.87947,497.91371 485.59183,496.23188 C 483.49246,493.48986 481.62315,492.68622 477.04864,492.55906 C 474.33591,492.48365 473.78601,492.53062 472.56474,492.94203 C 471.79916,493.19994 470.77084,493.66468 470.27959,493.97479 C 467.38312,495.80325 465.47266,499.53603 465.47266,503.36685 L 465.47266,504.71518 L 473.44924,504.56913 C 477.83638,504.4888 482.81346,504.42308 484.50943,504.42308 z"
       style="opacity:1;fill:#95b3b9;fill-opacity:1;fill-rule:nonzero;stroke:#95b3b9;stroke-width:1;stroke-opacity:1" />
    <path
       id="path3246"
       d="M 531.07169,533.02462 L 530.02854,532.89517 L 530.02854,501.78129 L 530.02854,470.66741 L 542.30569,470.67297 C 555.80208,470.67911 557.34682,470.83553 561.05715,472.5718 C 565.29696,474.55584 567.86528,478.07093 568.53733,482.80945 C 569.29434,488.14727 567.48072,493.43923 563.7771,496.69929 C 562.40003,497.91145 557.58723,500.51774 556.72597,500.51774 C 556.51817,500.51774 556.34818,500.64082 556.34818,500.79126 C 556.34818,500.9417 557.28924,501.22072 558.43944,501.41132 C 562.78562,502.1315 566.79583,505.2797 568.22178,509.09086 C 569.30159,511.97698 569.68727,515.68426 569.23833,518.86274 C 568.46774,524.31857 565.5979,528.35118 560.66108,530.91531 C 556.30999,533.17519 555.63348,533.26363 543.14203,533.20544 C 537.07708,533.17719 531.64543,533.09582 531.07169,533.02462 L 531.07169,533.02462 z M 554.65358,526.18962 C 556.91553,525.05931 559.30494,522.64758 560.30278,520.48768 C 560.88091,519.23629 561.00227,518.38884 561.00227,515.60339 C 561.00227,512.57048 560.91326,512.05197 560.11302,510.42243 C 559.12661,508.41377 557.14179,506.4093 555.01596,505.27487 C 553.68471,504.56445 553.2611,504.52522 545.88783,504.4294 L 538.15573,504.32892 L 537.9447,510.36737 C 537.82863,513.68852 537.73325,518.82514 537.73276,521.78209 L 537.73185,527.15836 L 545.22341,527.15836 L 552.71496,527.15836 L 554.65358,526.18962 z M 554.54115,497.03152 C 558.58202,495.04222 560.64965,491.68633 560.59894,487.19946 C 560.55814,483.58905 559.32924,480.99787 556.64589,478.86433 C 554.50039,477.15843 553.03837,476.82718 546.71905,476.61527 C 543.6297,476.51168 540.34375,476.34835 539.41695,476.25232 L 537.73185,476.07772 L 537.73185,487.00548 L 537.73185,497.93326 L 542.62666,498.049 C 551.38028,498.25602 552.19522,498.18643 554.54116,497.03152 L 554.54115,497.03152 z"
       style="opacity:1;fill:#0052f7;fill-opacity:1;fill-rule:nonzero;stroke:#0052f7;stroke-width:1;stroke-opacity:1" />
    <path
       id="path3248"
       d="M 584.91463,511.10979 L 584.91463,488.6418 L 586.31057,488.6418 C 587.07834,488.6418 588.83509,488.5464 590.21446,488.4298 L 592.7224,488.2178 L 592.5137,492.56962 C 592.32913,496.41807 592.36553,496.94468 592.82837,497.12229 C 593.11623,497.23276 593.3776,497.28362 593.40919,497.23534 C 593.44077,497.18704 593.85693,496.46584 594.33399,495.63266 C 595.56224,493.48749 598.1815,490.58065 599.94335,489.40739 C 601.64788,488.27231 602.95546,487.82173 605.37655,487.53522 L 607.06165,487.33581 L 607.06165,491.35901 L 607.06165,495.3822 L 604.00212,495.3822 C 602.16195,495.3822 600.53094,495.55453 599.90973,495.81459 C 597.84275,496.67991 595.75291,499.68651 594.02201,504.28511 C 593.32477,506.13751 593.25983,506.79424 593.25919,511.99979 C 593.25882,515.12924 593.16346,521.26452 593.04731,525.63374 L 592.83612,533.57778 L 588.87538,533.57778 L 584.91463,533.57778 L 584.91463,511.10979 z"
       style="opacity:1;fill:#0052f7;fill-opacity:1;fill-rule:nonzero;stroke:#0052f7;stroke-width:1;stroke-opacity:1" />
    <path
       id="path3250"
       d="M 631.59939,535.15588 C 626.2895,534.53548 622.33684,532.57575 618.87551,528.84738 C 615.2962,524.99191 613.60577,517.37815 614.35085,508.46783 C 614.93312,501.50399 617.0013,496.64723 620.99142,492.87355 C 624.3285,489.71746 628.55501,488.25761 634.5047,488.206 C 640.86208,488.15085 644.76679,489.74756 648.11581,493.77182 C 651.29037,497.58646 652.2556,500.43842 652.54438,506.85692 L 652.73574,511.10979 L 637.60201,511.10979 L 622.46827,511.10979 L 622.47389,514.07878 C 622.48625,520.6891 624.43753,525.36671 627.92479,527.14579 C 629.60613,528.00356 632.25016,528.68912 635.35562,529.07251 C 638.60986,529.47427 642.65506,528.98948 647.31386,527.63942 C 648.87754,527.18628 650.24613,526.90445 650.3551,527.01313 C 650.4641,527.12181 650.6025,528.54766 650.66271,530.18167 L 650.77217,533.15261 L 647.77394,534.00243 C 642.96813,535.3646 637.01768,535.78894 631.59939,535.15588 L 631.59939,535.15588 z M 644.87708,503.31297 C 644.71621,500.24774 643.96976,498.38476 642.15299,496.5141 C 640.11804,494.41877 638.62607,493.94674 634.02324,493.94198 C 630.172,493.93799 629.94215,493.97601 628.29211,494.88995 C 625.19114,496.60756 623.21142,499.82814 622.88843,503.68061 L 622.69616,505.97425 L 633.85643,505.97425 L 645.0168,505.97425 L 644.87708,503.31297 z"
       style="opacity:1;fill:#0052f7;fill-opacity:1;fill-rule:nonzero;stroke:#0052f7;stroke-width:1;stroke-opacity:1" />
    <path
       id="path3252"
       d="M 725.6048,535.2803 L 724.9071,535.14442 L 724.96285,517.89356 L 725.01861,500.64272 L 724.05569,498.73465 C 723.24681,497.13182 722.83603,496.6982 721.48792,496.02414 C 720.13272,495.34653 719.43371,495.22171 716.99432,495.22171 C 713.88751,495.22171 712.73972,495.54546 710.50772,497.05132 C 708.02834,498.72408 705.72091,502.77129 704.68857,507.25814 C 704.50581,508.05254 704.27163,512.38565 704.16825,516.88727 C 704.06483,521.3889 703.89609,527.27471 703.79332,529.96686 L 703.60642,534.86167 L 699.73929,534.86167 L 695.87213,534.86167 L 696.05159,517.94168 C 696.22427,501.65955 696.20723,500.95802 695.59924,499.33309 C 694.87577,497.39945 692.9849,495.57121 691.1353,495.01707 C 689.24443,494.45054 685.46977,494.79189 683.61331,495.69728 C 680.81431,497.06234 678.11969,500.0489 676.22323,503.88794 C 675.62408,505.10079 675.58392,505.98231 675.49662,519.82201 L 675.40421,534.47219 L 674.69422,534.66255 C 674.3037,534.76724 672.43147,534.85488 670.53373,534.85729 L 667.08329,534.86167 L 667.08329,512.07271 L 667.08329,489.28374 L 670.7665,489.28374 L 674.44971,489.28374 L 674.53791,494.45476 L 674.62611,499.62578 L 676.13753,497.41277 C 678.81816,493.48786 680.92665,491.42862 683.84377,489.88656 L 686.50205,488.48131 L 690.51419,488.48465 C 694.0305,488.48757 694.73313,488.58109 696.19981,489.24136 C 698.49912,490.27646 700.45698,492.48906 702.08758,495.89508 C 702.83994,497.4666 703.49873,498.80664 703.55156,498.87294 C 703.6044,498.93925 704.04705,498.50593 704.53524,497.91003 C 706.61302,495.37374 710.06661,492.02934 711.81067,490.86464 C 717.51398,487.05584 724.95223,487.57431 730.05526,492.13635 C 731.82118,493.71506 732.78942,495.36709 733.02206,497.19833 C 733.10821,497.87654 733.26375,506.77267 733.36768,516.96752 L 733.55664,535.50361 L 729.92956,535.4599 C 727.93466,535.43586 725.98852,535.35504 725.6048,535.2803 L 725.6048,535.2803 z"
       style="opacity:1;fill:#0052f7;fill-opacity:1;fill-rule:nonzero;stroke:#0052f7;stroke-width:1;stroke-opacity:1" />
    <path
       id="path3254"
       d="M 764.01662,536.13088 C 760.99378,535.76679 757.0612,534.41524 755.02942,533.04214 C 751.05073,530.3533 749.05416,527.39557 747.59104,522.02282 C 746.92551,519.57896 746.85024,518.62538 746.86895,512.87513 C 746.88856,506.84946 746.9429,506.28201 747.75525,503.62399 C 748.76281,500.32702 749.52595,498.74021 751.17498,496.51301 C 755.00923,491.33442 759.65083,489.2684 767.525,489.2355 C 773.76709,489.20941 777.32688,490.76552 780.89432,495.07971 C 782.61546,497.16116 784.03021,500.0157 784.54383,502.44357 C 784.74922,503.4145 785.00301,505.97826 785.10777,508.14081 L 785.2983,512.07271 L 770.16386,512.07271 L 755.02942,512.07271 L 755.02942,515.10095 C 755.02942,518.4999 755.68934,522.15087 756.6709,524.18229 C 757.60015,526.10542 760.18695,528.32725 762.20223,528.93318 C 763.11187,529.20669 765.33661,529.66207 767.14609,529.94515 C 770.16017,530.41667 770.71192,530.41693 773.726,529.94821 C 775.53548,529.66681 778.29894,529.0635 779.86702,528.60751 C 781.43512,528.15153 782.78192,527.84229 782.85998,527.92032 C 782.93801,527.99835 783.08299,529.42234 783.18217,531.08472 L 783.36249,534.10724 L 780.34973,534.95764 C 775.43739,536.34421 769.39283,536.7784 764.01662,536.13088 L 764.01662,536.13088 z M 777.40398,504.28915 C 777.30015,502.83274 776.98383,501.08975 776.70102,500.41583 C 775.98192,498.70226 773.89377,496.53903 772.10651,495.65611 C 770.77207,494.99687 770.13019,494.90962 766.58439,494.90546 C 762.73123,494.90092 762.50404,494.93852 760.8505,495.85438 C 757.71878,497.58895 755.69547,500.90874 755.41953,504.76544 L 755.26415,506.93716 L 766.42846,506.93716 L 777.59278,506.93716 L 777.40398,504.28915 z"
       style="opacity:1;fill:#0052f7;fill-opacity:1;fill-rule:nonzero;stroke:#0052f7;stroke-width:1;stroke-opacity:1" />
    <path
       id="path3257"
       d="M 799.96541,513.1961 L 799.96541,490.56763 L 803.86681,490.56763 L 807.76825,490.56763 L 807.56042,494.90074 C 807.36312,499.01445 807.38344,499.23385 807.96148,499.23385 C 808.36022,499.23385 808.90141,498.65227 809.52952,497.54875 C 812.07325,493.07988 816.16393,490.05495 820.15267,489.69326 L 822.11243,489.51556 L 822.11118,493.49202 L 822.10992,497.46851 L 819.46316,497.49741 C 818.00743,497.5133 816.29595,497.6242 815.65984,497.74385 C 813.33868,498.18044 810.67253,501.77767 808.94188,506.80787 C 808.40782,508.36014 808.31056,509.51167 808.30995,514.28951 C 808.30957,517.39535 808.21424,523.51132 808.09808,527.88054 L 807.88691,535.82458 L 803.92616,535.82458 L 799.96541,535.82458 L 799.96541,513.1961 z"
       style="opacity:1;fill:#0052f7;fill-opacity:1;fill-rule:nonzero;stroke:#0052f7;stroke-width:1;stroke-opacity:1" />
    <path
       id="path3259"
       d="M 834.18878,502.36332 C 834.30404,483.60656 834.42457,468.22589 834.45663,468.18406 C 834.48873,468.14223 836.38249,468.01341 838.66501,467.8978 L 842.81508,467.68761 L 842.71375,481.45466 C 842.65799,489.02654 842.65799,496.08693 842.71375,497.14442 L 842.81508,499.06714 L 843.886,497.39401 C 845.43533,494.97348 848.38865,492.38764 851.17872,491.00872 C 853.26706,489.97659 853.99191,489.78834 856.3548,489.66431 C 857.94547,489.58083 859.86315,489.68933 860.9089,489.92199 C 865.00909,490.83421 869.29643,493.84364 870.85882,496.90618 C 871.65473,498.46636 871.69222,500.56464 871.32888,523.22646 L 871.11659,536.46652 L 867.47765,536.46652 L 863.8387,536.46652 L 863.8387,519.83904 L 863.8387,503.21155 L 863.01788,501.56442 C 861.35252,498.22246 858.7401,496.77232 854.93001,497.07492 C 852.19912,497.29181 849.69603,498.56943 847.27269,500.98335 C 843.22598,505.01435 843.0688,505.77897 842.78324,522.82306 L 842.55464,536.46652 L 838.26695,536.46652 L 833.97925,536.46652 L 834.18878,502.36332 z"
       style="opacity:1;fill:#0052f7;fill-opacity:1;fill-rule:nonzero;stroke:#0052f7;stroke-width:1;stroke-opacity:1" />
    <path
       sodipodi:nodetypes="csssscccssssssscccccccccscccscccssscc"
       id="path3261"
       d="M 895.12233,537.13805 C 891.30752,536.66498 887.86183,534.30571 886.24859,531.06218 C 885.58505,529.72806 885.50426,529.11277 885.50426,525.39301 C 885.50426,521.56938 885.57391,521.07274 886.33696,519.45505 C 887.31836,517.3744 889.09542,515.52607 891.50944,514.07503 C 895.24648,511.82875 899.43994,510.93107 907.77723,510.59263 L 913.26828,510.36972 L 913.26828,506.41786 C 913.26828,500.48746 912.34356,498.32304 909.1403,496.75584 C 907.64573,496.02464 906.87219,495.88129 903.78236,495.76302 C 899.65187,495.60491 897.01031,496.0616 892.09958,497.82044 C 889.80542,498.64212 888.7652,500.12082 888.81453,498.50595 C 888.8224,498.24836 888.56109,496.94203 888.5584,495.51396 C 888.55285,492.57073 888.27431,492.88097 892.27817,491.37066 C 895.04282,490.32779 898.10139,489.92503 903.21918,489.9299 C 912.6463,489.93888 917.82668,492.21681 920.46898,497.51513 L 921.29256,499.1666 L 921.29256,517.97704 L 921.29256,536.7875 L 917.76188,536.7875 L 914.23119,536.7875 L 914.22179,531.7322 L 914.21238,526.6769 L 913.22857,527.8003 C 907.77405,534.02871 906.21641,535.39481 903.30985,536.49921 C 901.50972,537.18321 897.81264,537.47168 895.12229,537.13805 L 895.12233,537.13805 z M 904.21795,530.42243 C 907.19088,529.29131 909.7462,526.89682 911.72222,523.39051 C 912.44733,522.10385 912.61966,521.30909 912.81253,518.36181 L 913.04161,514.8613 L 908.09965,515.06112 C 900.84069,515.35463 897.81033,516.2511 895.04269,518.92376 C 893.49882,520.41466 892.72611,522.43476 892.72611,524.98012 C 892.72611,527.75991 894.16073,529.85037 896.74782,530.84038 C 898.41748,531.47933 901.96136,531.28105 904.21798,530.42244 L 904.21795,530.42243 z"
       style="opacity:1;fill:#0052f7;fill-opacity:1;fill-rule:nonzero;stroke:#0052f7;stroke-width:1;stroke-opacity:1" />
    <path
       id="path3263"
       d="M 947.14867,534.62461 C 943.3912,524.67916 931.21777,492.07589 931.09907,491.63999 C 930.9585,491.1239 931.30782,491.07664 935.26227,491.07664 L 939.5789,491.07664 L 946.02772,509.26306 C 949.57454,519.26561 952.56213,527.45026 952.66679,527.45119 C 952.77142,527.45211 955.65528,519.37686 959.07534,509.50619 C 962.49542,499.63551 965.39793,491.44635 965.52538,491.30804 C 965.65285,491.16974 967.58728,491.09732 969.82414,491.14709 L 973.89112,491.2376 L 965.08465,513.77155 L 956.2781,536.3055 L 952.06477,536.39513 L 947.85144,536.48476 L 947.14867,534.62461 z"
       style="opacity:1;fill:#0052f7;fill-opacity:1;fill-rule:nonzero;stroke:#0052f7;stroke-width:1;stroke-opacity:1" />
    <path
       id="path3265"
       d="M 996.57283,537.71434 C 988.02177,536.46856 982.80556,531.96731 980.6134,523.94241 C 979.94865,521.50894 979.86982,520.52286 979.86982,514.64048 C 979.86982,508.67464 979.94027,507.82093 980.6246,505.49279 C 982.83344,497.97826 987.95133,492.72407 994.39144,491.35935 C 995.58433,491.10657 998.22449,490.89724 1000.2584,490.89417 C 1006.2393,490.88517 1009.4109,492.05841 1012.7847,495.52799 C 1014.9798,497.78538 1016.7799,500.99981 1017.4178,503.80119 C 1017.6883,504.98921 1018.003,507.69741 1018.1171,509.8194 L 1018.3246,513.67756 L 1003.1896,513.67756 L 988.05459,513.67756 L 988.01318,515.36266 C 987.86052,521.57305 988.98458,525.87167 991.36539,528.18217 C 993.06509,529.83166 993.89222,530.23882 997.09983,531.00494 C 1002.5745,532.31255 1006.2966,532.12082 1012.9679,530.18757 C 1014.4943,529.74523 1015.7815,529.42432 1015.8283,529.47447 C 1015.8751,529.52462 1016.0157,530.94983 1016.1409,532.64161 L 1016.3684,535.71758 L 1013.3146,536.58419 C 1008.3648,537.98888 1001.5943,538.44593 996.57283,537.71435 L 996.57283,537.71434 z M 1010.4187,505.96063 C 1010.088,501.67292 1008.4585,499.03846 1005.1244,497.40114 C 1003.435,496.57154 1003.0171,496.50577 999.44907,496.50797 C 995.89532,496.51017 995.47106,496.57684 993.96367,497.37003 C 991.24039,498.80303 988.92498,502.08042 988.52732,505.06505 C 988.42541,505.82991 988.27081,506.92513 988.18377,507.49886 L 988.0255,508.54202 L 999.32162,508.54202 L 1010.6177,508.54202 L 1010.4187,505.96063 z"
       style="opacity:1;fill:#0052f7;fill-opacity:1;fill-rule:nonzero;stroke:#0052f7;stroke-width:1;stroke-opacity:1" />
    <path
       id="path3267"
       d="M 1032.3486,514.84786 L 1032.3486,491.85151 L 1036.1923,491.85151 L 1040.036,491.85151 L 1040.1242,497.0673 L 1040.2124,502.28308 L 1041.7475,500.00415 C 1046.281,493.27366 1051.454,490.48799 1058.4962,490.98497 C 1062.0013,491.23233 1064.4815,492.22777 1066.4653,494.18351 C 1069.692,497.36437 1070.061,499.78905 1069.7739,515.92436 C 1069.6624,522.19133 1069.4795,529.66594 1069.3674,532.53463 L 1069.1637,537.75041 L 1065.2783,537.75041 L 1061.3928,537.75041 L 1061.5107,520.57459 L 1061.6286,503.39876 L 1060.7553,501.61391 C 1058.3365,496.6699 1051.6297,495.99345 1046.5494,500.18109 C 1045.2093,501.28575 1043.1529,503.99197 1042.028,506.13138 L 1041.1824,507.73959 L 1041.0044,522.41124 C 1040.9065,530.48064 1040.7573,537.15204 1040.6728,537.23657 C 1040.5883,537.32109 1038.6807,537.4924 1036.4339,537.61724 L 1032.3486,537.84421 L 1032.3486,514.84786 z"
       style="opacity:1;fill:#0052f7;fill-opacity:1;fill-rule:nonzero;stroke:#0052f7;stroke-width:1;stroke-opacity:1" />
    <path
       sodipodi:nodetypes="csccccsccccc"
       id="path3269"
       d="M 501.47614,166.04345 C 501.47614,166.04345 496.9391,193.53256 495.60468,212.21448 C 494.27026,230.8964 491.86829,272.26351 491.86829,272.26351 L 491.60141,329.10993 L 493.20272,380.88554 L 496.67222,423.58707 C 496.67222,423.58707 501.74302,462.55222 504.14499,476.69711 C 506.54695,490.84199 515.88791,536.74614 515.88791,536.74614 L 526.16486,574.2801 L 530.70189,615.9141 L 546.81704,609.2154 L 526.17696,574.32308"
       style="opacity:1;fill:none;fill-opacity:1;fill-rule:nonzero;stroke:#0052f7;stroke-opacity:1" />
    <path
       sodipodi:nodetypes="cccccccccccccc"
       id="path3271"
       d="M 538.98127,612.94246 L 543.20526,623.96648 L 551.47434,643.97034 L 557.06812,656.79957 L 561.62827,666.58869 L 567.95168,679.96514 L 573.42387,690.05827 L 580.2945,702.7051 L 585.88828,712.0078 L 595.92061,728.48515 L 601.14959,736.51102 L 605.34493,742.40882 L 609.29706,748.0026 L 609.78348,748.79303"
       style="opacity:1;fill:none;fill-opacity:1;fill-rule:nonzero;stroke:#0052f7;stroke-opacity:1" />
    <path
       sodipodi:nodetypes="cscscc"
       id="path3277"
       d="M 322.86967,552.47341 C 322.86967,552.47341 340.33281,561.60187 353.23173,565.76921 C 366.13064,569.93655 392.32535,576.88212 392.32535,576.88212 C 392.32535,576.88212 422.09207,584.22457 432.21275,586.01058 C 442.33344,587.79658 465.15459,591.17014 465.15459,591.17014 L 528.31469,597.94703"
       style="opacity:1;fill:none;fill-opacity:1;fill-rule:nonzero;stroke:#3a5d49;stroke-opacity:1" />
    <path
       sodipodi:nodetypes="ccccccccccccccccc"
       id="path3279"
       d="M 541.64538,599.54248 L 565.29933,600.6973 L 584.84055,601.2955 L 602.78656,601.6943 L 626.31577,601.8937 L 648.24978,601.4949 L 691.51961,600.2985 L 724.22123,598.7033 L 752.53605,596.5099 L 784.83886,594.1171 L 815.14768,591.1261 L 860.01271,586.14109 L 901.28853,579.95969 L 985.03658,566.79928 L 1021.9256,559.82028 L 1083.5402,547.45747 L 1147.7471,532.50246"
       style="opacity:1;fill:none;fill-opacity:1;fill-rule:nonzero;stroke:#3a5d49;stroke-opacity:1" />
    <path
       id="path3205"
       d="M 530.98927,615.22379 C 530.98927,615.1764 530.04961,606.49627 528.90112,595.93461 C 527.75265,585.37293 526.82761,576.62032 526.84552,576.48436 C 526.86729,576.31897 530.06537,581.63909 536.50843,592.55898 C 541.80513,601.53598 546.15035,608.91213 546.1645,608.95041 C 546.17863,608.98872 542.85868,610.40332 538.78685,612.09399 C 530.45018,615.55548 530.98927,615.33911 530.98927,615.2238 L 530.98927,615.22379 z"
       style="opacity:1;fill:#0053f7;fill-opacity:1;fill-rule:nonzero;stroke:none;stroke-opacity:1" />
    <text
       transform="matrix(0.1431382,-0.9567445,1.0252267,0.133577,0,0)"
       sodipodi:linespacing="120%"
       id="text3279"
       y="513.03491"
       x="-92.602051"
       style="font-size:26.56212044px;font-style:normal;font-variant:normal;font-weight:normal;font-stretch:normal;text-align:start;line-height:120.00000477%;writing-mode:lr-tb;text-anchor:start;fill:#000000;fill-opacity:1;stroke:none;stroke-width:1px;stroke-linecap:butt;stroke-linejoin:miter;stroke-opacity:1;font-family:Calibri;-inkscape-font-specification:Calibri"
       xml:space="preserve"><tspan
         y="513.03491"
         x="-92.602051"
         id="tspan3281"
         sodipodi:role="line">8°35' E</tspan></text>
    <text
       transform="matrix(0.9476647,-0.1943712,0.2268844,1.0086903,0,0)"
       sodipodi:linespacing="120%"
       id="text3285"
       y="734.06305"
       x="1049.6426"
       style="font-size:26.56212044px;font-style:normal;font-variant:normal;font-weight:normal;font-stretch:normal;text-align:start;line-height:120.00000477%;writing-mode:lr-tb;text-anchor:start;fill:#000000;fill-opacity:1;stroke:none;stroke-width:1px;stroke-linecap:butt;stroke-linejoin:miter;stroke-opacity:1;font-family:Calibri;-inkscape-font-specification:Calibri"
       xml:space="preserve"><tspan
         y="734.06305"
         x="1049.6426"
         id="tspan3287"
         sodipodi:role="line">53°32' N</tspan></text>
  </g>
</svg>
